<svg xmlns="http://www.w3.org/2000/svg" width="24" height="17" viewBox="0 0 24 17">
  <path id="Icon_awesome-users" data-name="Icon awesome-users" d="M3.6,9.536A2.429,2.429,0,1,0,1.2,7.107,2.417,2.417,0,0,0,3.6,9.536Zm16.8,0A2.429,2.429,0,1,0,18,7.107,2.417,2.417,0,0,0,20.4,9.536Zm1.2,1.214H19.2a2.379,2.379,0,0,0-1.691.706,5.551,5.551,0,0,1,2.816,4.151H22.8A1.206,1.206,0,0,0,24,14.393V13.179A2.417,2.417,0,0,0,21.6,10.75Zm-9.6,0A4.25,4.25,0,1,0,7.8,6.5,4.223,4.223,0,0,0,12,10.75Zm2.88,1.214h-.311a5.738,5.738,0,0,1-5.137,0H9.12A4.347,4.347,0,0,0,4.8,16.336v1.093A1.811,1.811,0,0,0,6.6,19.25H17.4a1.811,1.811,0,0,0,1.8-1.821V16.336A4.347,4.347,0,0,0,14.88,11.964Zm-8.389-.508A2.379,2.379,0,0,0,4.8,10.75H2.4A2.417,2.417,0,0,0,0,13.179v1.214a1.206,1.206,0,0,0,1.2,1.214H3.671A5.565,5.565,0,0,1,6.491,11.456Z" transform="translate(0 -2.25)" fill="#b3b3b3"/>
</svg>
